<svg version="1.1" xmlns="http://www.w3.org/2000/svg" viewBox="0 0 579.8 150.3" xml:space="preserve"><linearGradient id="grad1_100" gradientUnits="userSpaceOnUse" x1="-13.291" y1="106.327" x2="207.298" y2="-9.019"><stop offset="0" stop-color="#fda9ff"></stop> <stop offset=".028" stop-color="#f9aaff"></stop> <stop offset=".243" stop-color="#dcb3ff"></stop> <stop offset=".367" stop-color="#d1b6ff"></stop> <stop offset=".89" stop-color="#4dffe5"></stop></linearGradient> <path d="M.1 2.9v53.6-2.1c.4 45.8 38.8 84.9 86.3 84.9s85.9-37 86.3-82.8V2.9s-12-5.8-25.6 8.1c-8.7 8.9-15.7 41.1-34.4 41.3-25 .4-42-32.8-62.3-45.2C29.1-5.9.1 2.9.1 2.9z" fill="url(#grad1_100)"></path> <linearGradient id="grad2_100" gradientUnits="userSpaceOnUse" x1="76.719" y1="70.177" x2="99.452" y2="-13.176"><stop offset="0" stop-color="#16183c" stop-opacity=".3"></stop> <stop offset=".867" stop-color="#16183c" stop-opacity="0"></stop></linearGradient> <path d="M.1 2.9v53.6-2.1c.4 45.8 38.8 84.9 86.3 84.9s85.9-37 86.3-82.8V2.9s-12-5.8-25.6 8.1c-8.7 8.9-15.7 41.1-34.4 41.3-25 .4-42-32.8-62.3-45.2C29.1-5.9.1 2.9.1 2.9z" fill="url(#grad2_100)"></path> <linearGradient id="grad3_100" gradientUnits="userSpaceOnUse" x1="-5.976" y1="112.594" x2="191.881" y2="25.031"><stop offset="0" stop-color="#fda9ff"></stop> <stop offset=".028" stop-color="#f9aaff"></stop> <stop offset=".243" stop-color="#dcb3ff"></stop> <stop offset=".367" stop-color="#d1b6ff"></stop> <stop offset=".89" stop-color="#4dffe5"></stop></linearGradient> <path d="M172.7 61.7V24.5c-4.9.8-10.9 3.2-17.2 9-9.8 9-17.6 41.5-38.6 41.8-28 .4-47.1-33.2-69.9-45.8-15.9-8.6-35.6-7.6-47-5.9v38.2-2.3c.4 49 38.9 90.8 86.3 90.8 47.5 0 86-39.6 86.4-88.6z" fill="url(#grad3_100)"></path> <linearGradient id="grad4_100" gradientUnits="userSpaceOnUse" x1="66.553" y1="93.575" x2="96.863" y2="31.271"><stop offset="0" stop-color="#16183c" stop-opacity=".3"></stop> <stop offset=".867" stop-color="#16183c" stop-opacity="0"></stop></linearGradient> <path d="M172.7 61.7V24.5c-4.9.8-10.9 3.2-17.2 9-9.8 9-17.6 41.5-38.6 41.8-28 .4-47.1-33.2-69.9-45.8-15.9-8.6-35.6-7.6-47-5.9v38.2-2.3c.4 49 38.9 90.8 86.3 90.8 47.5 0 86-39.6 86.4-88.6z" fill="url(#grad4_100)"></path> <linearGradient id="grad5_100" gradientUnits="userSpaceOnUse" x1="-14.459" y1="125.184" x2="163.191" y2="56.986"><stop offset="0" stop-color="#fda9ff"></stop> <stop offset=".028" stop-color="#f9aaff"></stop> <stop offset=".243" stop-color="#dcb3ff"></stop> <stop offset=".367" stop-color="#d1b6ff"></stop> <stop offset=".89" stop-color="#4dffe5"></stop></linearGradient> <path d="M172.7 61.7v-8.5c-3.7 1.4-7.8 3.7-12 7.3-10.6 9-19 41.5-41.6 41.8-30.2.4-50.7-33.2-75.3-45.8-14.2-7.1-31.4-7.6-43.8-6.6v11.9-2.3c.4 49 38.9 90.8 86.3 90.8 47.5 0 86-39.6 86.4-88.6z" fill="url(#grad5_100)"></path> <path d="M255.3 115.5c-1.7-3.1-3.3-9.1-3.7-13.5-5.2 9.7-14.8 15-25.3 15-13.1 0-20-8.2-20-23.2V62.3c0-6.9-.2-11.4-4.3-20.9 10.7-3.1 20.9-6.4 31.4-10.7v60c0 7.4 2 10.9 8.3 10.9 3 0 6.5-1 9.6-4.3V62.1c0-7.1-.4-14.3-2.8-21.3 10.4-2.8 19.6-6.1 30-10.7v61.5c0 8.1.6 14.3 4.1 23.9h-27.3zM419.1 115.5h-30c-1.8-6.9-2.4-19.5-2.4-28V57.2c0-8.4-2.8-10.9-8.3-10.9-3 0-6.7 1.2-9.8 4.8v36.1c0 8.9 1.5 19 5 28.4h-32.2V57.2c0-8.4-2.8-10.9-8.1-10.9-3.1 0-6.7 1.2-9.8 4.8v41.5c0 9.4.2 14.7 4.3 22.9h-35.7c3.9-8.2 4.3-13.5 4.3-22.9v-32c0-8.2-.2-12.4-4.3-19.8 8.9-3.3 18.1-6.8 26.8-10.5 2.4 4.5 4.3 10.7 4.6 16 5-10.1 14.8-15.5 25.1-15.5 11.1 0 17.6 5.8 19.4 16.5 5-10.5 15-16.5 25.9-16.5 12.9 0 20 8.2 20 23.2v33.1c0 9 1.3 19 5.2 28.4zM496.6 74.7h-47.3c2 13.8 8.7 22.4 27.9 22.4 8.5 0 13.9-1.6 19-3.8-1.7 9.9-12 24.4-33.8 24.4-23.5 0-40.1-17.1-40.1-42.9 0-24.7 14.6-44.2 40.1-44.2 20 0 34.2 14 34.2 38.4v5.7zM468.8 63c0-17.6-3.7-23.7-9.6-23.7-6.1 0-10.5 6.8-10.5 24.4 0 1.8 0 3.6.2 5.4h20V63zM579.8 74.7h-47.3c2 13.8 8.7 22.4 27.9 22.4 8.5 0 13.9-1.6 19-3.8-1.7 9.9-12 24.4-33.8 24.4-23.5 0-40.1-17.1-40.1-42.9 0-24.7 14.6-44.2 40.1-44.2 16.7 0 34.2 14 34.2 38.4v5.7zM552 63c0-17.6-3.7-23.7-9.6-23.7-6.1 0-10.5 6.8-10.5 24.4 0 1.8 0 3.6.2 5.4h20V63z" class="fill-navy dark:fill-white"></path></svg>
