<svg xmlns="http://www.w3.org/2000/svg" fill="none" viewBox="0 0 42 42">
  <g clip-path="url(#a)">
    <path fill="url(#b)" d="M32.455 0H9.545A9.545 9.545 0 0 0 0 9.545v22.91A9.545 9.545 0 0 0 9.545 42h22.91A9.545 9.545 0 0 0 42 32.455V9.545A9.545 9.545 0 0 0 32.455 0Z"/>
    <path fill="url(#c)" d="M32.455 0H9.545A9.545 9.545 0 0 0 0 9.545v22.91A9.545 9.545 0 0 0 9.545 42h22.91A9.545 9.545 0 0 0 42 32.455V9.545A9.545 9.545 0 0 0 32.455 0Z"/>
    <path fill="url(#d)" d="M32.455 0H9.545A9.545 9.545 0 0 0 0 9.545v22.91A9.545 9.545 0 0 0 9.545 42h22.91A9.545 9.545 0 0 0 42 32.455V9.545A9.545 9.545 0 0 0 32.455 0Z"/>
    <path fill="url(#e)" d="M32.455 0H9.545A9.545 9.545 0 0 0 0 9.545v22.91A9.545 9.545 0 0 0 9.545 42h22.91A9.545 9.545 0 0 0 42 32.455V9.545A9.545 9.545 0 0 0 32.455 0Z"/>
    <path fill="#fff" d="M17.253 32.261V22.52l9.465 9.742h5.267v-.253L21.096 20.912l10.05-10.526v-.125h-5.3l-8.593 9.303V10.26h-4.268v22h4.268Z"/>
  </g>
  <defs>
    <radialGradient id="c" cx="0" cy="0" r="1" gradientTransform="matrix(47.49745 -47.75613 48.47062 48.20806 2.006 40.409)" gradientUnits="userSpaceOnUse">
      <stop stop-color="#232DE3"/>
      <stop offset="1" stop-color="#232DE3" stop-opacity="0"/>
    </radialGradient>
    <radialGradient id="d" cx="0" cy="0" r="1" gradientTransform="rotate(-138.45 27.79 13.343) scale(42.1137 64.2116)" gradientUnits="userSpaceOnUse">
      <stop stop-color="#8B4DFF"/>
      <stop offset="1" stop-color="#8B4DFF" stop-opacity="0"/>
    </radialGradient>
    <radialGradient id="e" cx="0" cy="0" r="1" gradientTransform="matrix(0 33.1135 -80.3423 0 20.65 .311)" gradientUnits="userSpaceOnUse">
      <stop stop-color="#24D5FF"/>
      <stop offset="1" stop-color="#1BB8FF" stop-opacity="0"/>
    </radialGradient>
    <linearGradient id="b" x1="21" x2="21" y1="0" y2="42" gradientUnits="userSpaceOnUse">
      <stop stop-color="#1FD1FF"/>
      <stop offset="1" stop-color="#1BB8FF"/>
    </linearGradient>
    <clipPath id="a">
      <path fill="#fff" d="M0 0h42v42H0z"/>
    </clipPath>
  </defs>
</svg>
